<svg width="59" height="58" viewBox="0 0 59 58" fill="none" xmlns="http://www.w3.org/2000/svg">
<path fill-rule="evenodd" clip-rule="evenodd" d="M39.2616 0.594573C38.4725 -0.196647 37.1915 -0.198414 36.4002 0.590626C35.609 1.37967 35.6073 2.66072 36.3963 3.45194L43.3112 10.386H15.1357L22.0507 3.45194C22.8397 2.66072 22.838 1.37967 22.0467 0.590626C21.2555 -0.198414 19.9745 -0.196647 19.1854 0.594573L9.42099 10.386H8.23573C6.63879 10.386 4.53154 10.4422 2.87108 11.5544C0.992945 12.8123 0.223633 14.9771 0.223633 17.8046C0.223633 20.8889 0.920046 23.2392 2.98673 24.4302C3.47263 24.7103 3.97848 24.8888 4.47146 25.0041L8.10054 47.2419C8.55192 49.9784 9.37383 52.7612 11.4155 54.8288C13.5143 56.9543 16.5663 58 20.7526 58H37.0196C41.4682 58 44.5376 57.0309 46.5662 54.9053C48.5082 52.8704 49.1315 50.1085 49.6086 47.6168L53.9439 25.0115C54.4469 24.8964 54.9641 24.7163 55.4605 24.4302C57.5272 23.2392 58.2236 20.8889 58.2236 17.8046C58.2236 14.9771 57.4543 12.8123 55.5762 11.5544C53.9157 10.4422 51.8085 10.386 50.2115 10.386H49.026L39.2616 0.594573ZM49.783 25.2232H8.60725L12.0931 46.5833C12.505 49.0793 13.1536 50.8299 14.2949 51.9856C15.3794 53.0839 17.2236 53.9535 20.7526 53.9535H37.0196C40.9608 53.9535 42.7067 53.0883 43.6388 52.1115C44.6576 51.0441 45.1403 49.4357 45.6343 46.8558L49.783 25.2232ZM26.9852 34.6102C26.195 33.82 24.914 33.82 24.1239 34.6102C23.3337 35.4003 23.3337 36.6814 24.1239 37.4715L26.4025 39.7501L24.0428 42.1098C23.2527 42.9 23.2527 44.181 24.0428 44.9711C24.8329 45.7613 26.114 45.7613 26.9041 44.9711L29.2638 42.6115L31.5425 44.8901C32.3326 45.6802 33.6136 45.6802 34.4038 44.8901C35.1939 44.1 35.1939 42.8189 34.4038 42.0288L32.1251 39.7501L34.3227 37.5525C35.1129 36.7624 35.1129 35.4814 34.3227 34.6912C33.5326 33.9011 32.2515 33.9011 31.4614 34.6912L29.2638 36.8888L26.9852 34.6102ZM5.12293 14.9164C4.83618 15.1085 4.27014 15.6413 4.27014 17.8046C4.27014 20.5006 4.89982 20.8625 5.00506 20.923L5.00728 20.9243C5.16483 21.0151 5.45748 21.1113 6.04841 21.1547C6.49895 21.1878 6.96322 21.1843 7.53984 21.18C7.75453 21.1784 7.9848 21.1767 8.23573 21.1767H50.2115C50.4625 21.1767 50.6927 21.1784 50.9074 21.18C51.4841 21.1843 51.9483 21.1878 52.3989 21.1547C52.9898 21.1113 53.2824 21.0151 53.44 20.9243L53.4422 20.923C53.5474 20.8625 54.1771 20.5006 54.1771 17.8046C54.1771 15.6413 53.6111 15.1085 53.3243 14.9164C52.8199 14.5786 51.9327 14.4325 50.2115 14.4325H8.23573C6.51452 14.4325 5.62735 14.5786 5.12293 14.9164Z" fill="#020202"/>
</svg>
