<svg width="225" height="225" viewBox="0 0 225 225" fill="none" xmlns="http://www.w3.org/2000/svg">
<circle cx="112.5" cy="112.5" r="112.5" fill="#00A651"/>
<path fill-rule="evenodd" clip-rule="evenodd" d="M74.2093 112.5C74.2093 91.3526 91.3526 74.2093 112.5 74.2093C133.647 74.2093 150.791 91.3526 150.791 112.5C150.791 133.647 133.647 150.791 112.5 150.791C91.3526 150.791 74.2093 133.647 74.2093 112.5ZM112.5 68C87.9233 68 68 87.9233 68 112.5C68 137.077 87.9233 157 112.5 157C137.077 157 157 137.077 157 112.5C157 87.9233 137.077 68 112.5 68ZM112.5 84.5582C114.215 84.5582 115.605 85.9482 115.605 87.6628V90.1045H117.144C124.091 90.1045 129.438 95.9436 129.438 102.854C129.438 104.569 128.048 105.959 126.334 105.959C124.619 105.959 123.229 104.569 123.229 102.854C123.229 99.0849 120.38 96.3138 117.144 96.3138H115.605V110.282L121.907 112.471C123.766 113.13 125.782 114.117 127.271 116.017C128.789 117.954 129.438 120.417 129.438 123.386C129.438 129.603 124.578 134.894 118.303 134.894H115.605V137.337C115.605 139.052 114.215 140.442 112.5 140.442C110.785 140.442 109.395 139.052 109.395 137.337V134.894H107.913C100.966 134.894 95.6182 129.055 95.6182 122.144C95.6182 120.43 97.0082 119.04 98.7228 119.04C100.437 119.04 101.827 120.43 101.827 122.144C101.827 125.914 104.676 128.685 107.913 128.685H109.395V114.698L103.15 112.528C101.291 111.869 99.2744 110.881 97.7852 108.982C96.2672 107.045 95.6182 104.582 95.6182 101.612C95.6182 95.3953 100.479 90.1045 106.754 90.1045H109.395V87.6628C109.395 85.9482 110.785 84.5582 112.5 84.5582ZM106.754 96.3138H109.395V108.124L105.215 106.672C103.81 106.173 103.096 105.692 102.672 105.151C102.275 104.645 101.827 103.693 101.827 101.612C101.827 98.557 104.17 96.3138 106.754 96.3138ZM115.605 128.685V116.855L119.841 118.326C121.246 118.825 121.96 119.306 122.384 119.848C122.781 120.354 123.229 121.306 123.229 123.386C123.229 126.442 120.887 128.685 118.303 128.685H115.605Z" fill="white"/>
</svg>
