<svg width="226" height="225" viewBox="0 0 226 225" fill="none" xmlns="http://www.w3.org/2000/svg">
<circle cx="113" cy="112.5" r="112.5" fill="#56CCF2"/>
<path fill-rule="evenodd" clip-rule="evenodd" d="M92.5706 91.8023C92.5706 82.086 100.447 74.2093 110.164 74.2093C119.88 74.2093 127.757 82.086 127.757 91.8023C127.757 101.519 119.88 109.395 110.164 109.395C100.447 109.395 92.5706 101.519 92.5706 91.8023ZM110.164 68C97.018 68 86.3613 78.6567 86.3613 91.8023C86.3613 104.948 97.018 115.605 110.164 115.605C123.309 115.605 133.966 104.948 133.966 91.8023C133.966 78.6567 123.309 68 110.164 68ZM77.7093 153.895C77.7093 140.156 91.6301 128.023 110.163 128.023C111.878 128.023 113.268 126.633 113.268 124.919C113.268 123.204 111.878 121.814 110.163 121.814C89.4538 121.814 71.5 135.595 71.5 153.895C71.5 155.61 72.89 157 74.6046 157C76.3193 157 77.7093 155.61 77.7093 153.895ZM135.829 128.023C130.228 128.023 125.687 132.564 125.687 138.165C125.687 143.766 130.228 148.307 135.829 148.307C141.43 148.307 145.971 143.766 145.971 138.165C145.971 132.564 141.43 128.023 135.829 128.023ZM119.478 138.165C119.478 129.135 126.798 121.814 135.829 121.814C144.859 121.814 152.18 129.135 152.18 138.165C152.18 141.565 151.142 144.722 149.367 147.338C149.452 147.407 149.535 147.481 149.614 147.56L153.754 151.7C154.966 152.912 154.966 154.878 153.754 156.091C152.542 157.303 150.576 157.303 149.363 156.091L145.224 151.951C145.144 151.872 145.07 151.789 145.001 151.703C142.385 153.479 139.228 154.516 135.829 154.516C126.798 154.516 119.478 147.196 119.478 138.165Z" fill="white"/>
</svg>
