<svg width="25" height="25" viewBox="0 0 25 25" fill="none" xmlns="http://www.w3.org/2000/svg">
<g id="ic:outline-chat">
<path id="Vector" d="M3.73703 4.73089C3.73703 4.45475 3.96089 4.23089 4.23703 4.23089H19.9178C20.194 4.23089 20.4178 4.45475 20.4178 4.73089V16.2271C20.4178 16.5032 20.194 16.7271 19.9178 16.7271H5.09343L3.73703 18.0257V4.73089ZM4.03735 2.45068C2.93735 2.45068 2.04735 3.35068 2.04735 4.45068L2.03735 22.4507L6.03735 18.4507H20.0374C21.1374 18.4507 22.0374 17.5507 22.0374 16.4507V4.45068C22.0374 3.35068 21.1374 2.45068 20.0374 2.45068H4.03735ZM6.03735 13.4507C6.03735 12.8984 6.48507 12.4507 7.03735 12.4507H13.0374C13.5896 12.4507 14.0374 12.8984 14.0374 13.4507C14.0374 14.003 13.5896 14.4507 13.0374 14.4507H7.03735C6.48507 14.4507 6.03735 14.003 6.03735 13.4507ZM6.03735 10.4507C6.03735 9.8984 6.48507 9.45068 7.03735 9.45068H17.0374C17.5896 9.45068 18.0374 9.8984 18.0374 10.4507C18.0374 11.003 17.5896 11.4507 17.0374 11.4507H7.03735C6.48507 11.4507 6.03735 11.003 6.03735 10.4507ZM6.03735 7.45068C6.03735 6.8984 6.48507 6.45068 7.03735 6.45068H17.0374C17.5896 6.45068 18.0374 6.8984 18.0374 7.45068C18.0374 8.00297 17.5896 8.45068 17.0374 8.45068H7.03735C6.48507 8.45068 6.03735 8.00297 6.03735 7.45068Z" fill="white"/>
</g>
</svg>
