<svg width="49" height="48" viewBox="0 0 49 48" fill="none" xmlns="http://www.w3.org/2000/svg">
<ellipse cx="24.5018" cy="24" rx="23.9996" ry="24" fill="#F5F5F5"/>
<path d="M34.553 18.9352C34.7067 18.3509 34.553 17.9209 33.8135 17.9209H31.3663C30.7431 17.9209 30.4565 18.2902 30.3027 18.7015C30.3027 18.7015 29.0563 22.1183 27.2947 24.3338C26.7255 24.9742 26.4638 25.1798 26.1522 25.1798C25.9985 25.1798 25.7616 24.9742 25.7616 24.3899V18.9352C25.7616 18.2341 25.5871 17.9209 25.072 17.9209H21.2247C20.8342 17.9209 20.6015 18.2481 20.6015 18.5519C20.6015 19.2156 21.4823 19.3699 21.5737 21.2395V25.2967C21.5737 26.1848 21.4324 26.3484 21.1208 26.3484C20.2899 26.3484 18.2707 22.9175 17.0741 18.9913C16.8332 18.2294 16.5964 17.9209 15.969 17.9209H13.5219C12.8239 17.9209 12.6826 18.2902 12.6826 18.7015C12.6826 19.4306 13.5136 23.0531 16.5507 27.8394C18.574 31.1066 21.4241 32.8781 24.0167 32.8781C25.5747 32.8781 25.7658 32.4855 25.7658 31.8077C25.7658 28.6854 25.6245 28.391 26.4056 28.391C26.7671 28.391 27.3903 28.5966 28.8444 30.1718C30.5063 32.0415 30.7805 32.8781 31.7112 32.8781H34.1583C34.8563 32.8781 35.2094 32.4855 35.0059 31.7096C34.5405 30.0783 31.3954 26.7223 31.2542 26.4979C30.8927 25.9744 30.9966 25.7407 31.2542 25.2733C31.2583 25.2686 34.2456 20.5384 34.553 18.9352Z" fill="#F2C94C"/>
</svg>
