<svg width="59" height="58" viewBox="0 0 59 58" fill="none" xmlns="http://www.w3.org/2000/svg">
<path fill-rule="evenodd" clip-rule="evenodd" d="M23.1539 10.7907C23.1539 9.79121 23.3085 8.88388 23.581 8.08358L31.8533 14.1715C31.7909 14.1657 31.7277 14.1627 31.6637 14.1627H31.6395C30.5221 14.1627 29.6162 15.0686 29.6162 16.186C29.6162 17.3034 30.5221 18.2092 31.6395 18.2092H31.6637C32.7812 18.2092 33.687 17.3034 33.687 16.186C33.687 15.9097 33.6316 15.6463 33.5314 15.4064L50.1392 27.6288C49.3389 27.9012 48.4318 28.0559 47.4329 28.0559H40.419C40.019 28.0559 39.628 28.1744 39.2953 28.3966L31.9213 33.3209L31.9213 30.0791C31.9213 29.1014 31.2278 28.2856 30.3058 28.097C30.1741 28.07 30.0377 28.0559 29.898 28.0559C29.2893 28.0559 28.7201 28.0001 28.1918 27.8954C26.8383 27.6274 25.7536 27.0389 24.9622 26.2475C23.8619 25.1472 23.1539 23.4798 23.1539 21.3117V10.7907ZM33.5313 15.4064L50.1393 27.6288C52.579 26.7583 54.1771 24.5717 54.1771 21.3117V10.7907C54.1771 8.62025 53.4624 6.96876 52.3587 5.86496C51.2549 4.76116 49.6034 4.04651 47.4329 4.04651H29.898C26.6383 4.04651 24.4517 5.64434 23.581 8.08358L31.8534 14.1715C32.6121 14.242 33.2493 14.7315 33.5313 15.4064ZM29.898 0C25.6534 0 22.1357 1.97431 20.3491 5.39534H14.3864C10.4344 5.39534 6.83198 6.38305 4.20853 8.81911C1.55794 11.2804 0.223633 14.9237 0.223633 19.5581V34.1256C0.223633 38.7601 1.55794 42.4034 4.20853 44.8647C6.83198 47.3007 10.4344 48.2884 14.3864 48.2884H24.5027V53.9535H16.8144C15.6969 53.9535 14.7911 54.8593 14.7911 55.9767C14.7911 57.0942 15.6969 58 16.8144 58L26.526 58L36.2376 58C37.355 58 38.2609 57.0942 38.2609 55.9767C38.2609 54.8593 37.355 53.9535 36.2376 53.9535H28.5492V48.2884H38.6655C42.6175 48.2884 46.2199 47.3007 48.8434 44.8647C51.494 42.4034 52.8283 38.7601 52.8283 34.1256V30.8604C56.2493 29.0739 58.2236 25.5564 58.2236 21.3117V10.7907C58.2236 7.70069 57.1848 4.96845 55.22 3.00364C53.2552 1.03884 50.5229 0 47.4329 0H29.898ZM46.0899 41.8994C44.4645 43.4087 41.9972 44.2419 38.6655 44.2419H26.526H14.3864C11.0547 44.2419 8.58738 43.4087 6.96199 41.8994C5.36374 40.4153 4.27014 37.9888 4.27014 34.1256V19.5581C4.27014 15.6949 5.36374 13.2684 6.96199 11.7844C8.58738 10.2751 11.0547 9.44185 14.3864 9.44185H19.1753C19.1302 9.88351 19.1073 10.3336 19.1073 10.7907V21.3117C19.1073 24.3771 20.1258 27.1337 22.1009 29.1088C23.4389 30.4469 25.1358 31.3459 27.0443 31.7866C27.317 31.8496 27.5939 31.9032 27.8748 31.9474V33.8289C27.8748 36.8444 31.2492 38.5944 33.7268 36.9811L41.0324 32.1024H47.4329C47.4774 32.1024 47.5219 32.1022 47.5663 32.1017C47.8993 32.0985 48.2284 32.0831 48.5532 32.0557C48.6296 32.0493 48.7058 32.0422 48.7818 32.0344V34.1256C48.7818 37.9888 47.6882 40.4153 46.0899 41.8994ZM46.7459 14.1627C45.6285 14.1627 44.7227 15.0686 44.7227 16.186C44.7227 17.3034 45.6285 18.2092 46.7459 18.2092H46.7702C47.8876 18.2092 48.7934 17.3034 48.7934 16.186C48.7934 15.0686 47.8876 14.1627 46.7702 14.1627H46.7459ZM37.1701 16.186C37.1701 15.0686 38.0759 14.1628 39.1934 14.1628H39.2176C40.335 14.1628 41.2409 15.0686 41.2409 16.186C41.2409 17.3034 40.335 18.2093 39.2176 18.2093H39.1934C38.0759 18.2093 37.1701 17.3034 37.1701 16.186Z" fill="#020202"/>
</svg>
