<svg width="49" height="48" viewBox="0 0 49 48" fill="none" xmlns="http://www.w3.org/2000/svg">
<ellipse cx="24.5005" cy="24" rx="23.9996" ry="24" fill="#F5F5F5"/>
<path d="M28.667 15.6665H20.3338C18.0327 15.6665 16.1672 17.532 16.1672 19.8332V28.1665C16.1672 30.4677 18.0327 32.3332 20.3338 32.3332H28.667C30.9681 32.3332 32.8336 30.4677 32.8336 28.1665V19.8332C32.8336 17.532 30.9681 15.6665 28.667 15.6665Z" fill="#F2C94C"/>
<path d="M27.8339 23.4748C27.9367 24.1683 27.8182 24.8766 27.4953 25.4989C27.1724 26.1213 26.6615 26.6259 26.0353 26.9412C25.409 27.2564 24.6993 27.3661 24.0071 27.2547C23.3149 27.1433 22.6754 26.8165 22.1797 26.3207C21.6839 25.825 21.3571 25.1855 21.2457 24.4933C21.1343 23.8011 21.244 23.0913 21.5592 22.4651C21.8745 21.8388 22.3791 21.3279 23.0014 21.005C23.6238 20.682 24.3321 20.5636 25.0256 20.6664C25.733 20.7713 26.3879 21.101 26.8936 21.6067C27.3993 22.1124 27.729 22.7673 27.8339 23.4748Z" fill="#F5F5F5"/>
<path d="M29.0837 19.4165H29.0921" stroke="#F5F5F5" stroke-width="2" stroke-linecap="round" stroke-linejoin="round"/>
</svg>
