<svg width="167" height="59" viewBox="0 0 167 59" fill="none" xmlns="http://www.w3.org/2000/svg">
<g clip-path="url(#clip0_1820_3124)">
<path d="M33.5844 20.7268C33.5875 17.4525 36.2847 14.7582 39.5425 14.7676C42.8065 14.7801 45.4666 17.5118 45.4604 20.8516C45.4542 24.0885 42.7074 26.8202 39.4682 26.8077C36.1702 26.7984 33.5782 24.1197 33.5844 20.7268ZM39.5209 16.5451C37.2602 16.5451 35.3712 18.4348 35.3712 20.7019C35.3681 23.1311 37.1859 25.0209 39.5301 25.0302C41.8837 25.0396 43.7913 23.1841 43.8037 20.8672C43.8161 18.5253 41.8558 16.5451 39.5209 16.5451Z" fill="#FCD304"/>
<path d="M43.8222 27.9958C44.1319 28.0146 44.3858 28.183 44.5406 28.473C45.0485 29.4085 45.5564 30.3471 46.0395 31.2951C46.2594 31.7254 46.0921 32.2368 45.6803 32.4427C45.2498 32.6578 44.7946 32.6048 44.553 32.1901C43.9801 31.2047 43.4351 30.1974 42.9551 29.1621C42.695 28.6195 43.1935 28.0021 43.8222 27.9958Z" fill="#FCD304"/>
<path d="M32.581 16.1335C32.5717 16.7728 31.8811 17.2312 31.3144 16.9256C30.3451 16.4017 29.4099 15.8154 28.4871 15.2104C28.0876 14.9485 28.0257 14.3716 28.2889 14.013C28.58 13.6169 28.9826 13.4891 29.4099 13.7386C30.3451 14.2812 31.268 14.8518 32.1846 15.4256C32.4509 15.5878 32.5717 15.8559 32.581 16.1335Z" fill="#FCD304"/>
<path d="M28.7812 27.5156C28.5056 27.5032 28.2176 27.3691 28.0566 27.0354C27.8987 26.708 27.9389 26.3961 28.1805 26.1155C28.3353 25.9346 28.5242 25.8036 28.7317 25.6945C29.5183 25.2797 30.2955 24.8463 31.0914 24.4565C31.6333 24.1914 32.2031 24.3661 32.4013 24.7964C32.6119 25.2517 32.4044 25.7537 31.8625 26.05C31.0666 26.4866 30.2584 26.9044 29.4563 27.3285C29.2736 27.4314 29.0785 27.5187 28.7812 27.5156Z" fill="#FCD304"/>
<path d="M33.5812 9.27921C33.8753 9.2948 34.1448 9.46007 34.3213 9.76568C34.7951 10.5858 35.2782 11.406 35.7303 12.2386C36.0493 12.8279 35.9378 13.3487 35.4826 13.6169C35.0521 13.8726 34.5133 13.6699 34.185 13.1055C33.7267 12.3196 33.2715 11.5307 32.8379 10.7324C32.4477 10.0089 32.807 9.26673 33.5812 9.27921Z" fill="#FCD304"/>
<path d="M35.6004 28.367C35.6035 28.6975 35.5384 28.8971 35.4238 29.0842C34.9407 29.8825 34.47 30.6839 33.9715 31.4729C33.6277 32.0155 33.1075 32.2026 32.7049 31.9781C32.2775 31.7411 32.1629 31.161 32.4881 30.581C32.9619 29.7359 33.4698 28.9064 33.9776 28.0801C34.2285 27.6716 34.6156 27.5094 35.077 27.6529C35.461 27.7714 35.5849 28.0988 35.6004 28.367Z" fill="#FCD304"/>
<path d="M40.36 10.0651C40.36 10.5515 40.3662 11.038 40.36 11.5245C40.3507 12.0359 40.1339 12.3883 39.5889 12.4444C39.1058 12.4943 38.7001 12.1793 38.6506 11.618C38.5577 10.5702 38.5608 9.51622 38.6475 8.46844C38.6939 7.90089 39.0841 7.58905 39.5734 7.63271C40.1153 7.6826 40.3445 8.02874 40.3569 8.54328C40.3693 9.05158 40.36 9.55987 40.36 10.0651Z" fill="#FCD304"/>
<path d="M47.1667 10.6046C47.1295 10.7137 47.1017 10.8946 47.0119 11.038C46.4606 11.9049 45.9094 12.7719 45.3241 13.6138C45.0021 14.0753 44.5375 14.1471 44.1102 13.8789C43.6859 13.6107 43.5621 13.196 43.8563 12.7251C44.4044 11.8332 44.9866 10.9663 45.5688 10.0963C45.801 9.75012 46.1509 9.65969 46.5411 9.78131C46.9035 9.89357 47.1171 10.1493 47.1667 10.6046Z" fill="#FCD304"/>
<path d="M38.3688 31.5851C38.3688 31.08 38.3471 30.5748 38.375 30.0696C38.4121 29.4147 38.8023 29 39.3164 29.0218C39.8119 29.0436 40.134 29.449 40.1216 30.0977C40.1061 31.0488 40.1525 31.9999 40.0256 32.9479C39.9451 33.5497 39.6323 33.899 39.1337 33.8834C38.6506 33.8709 38.3564 33.4936 38.3471 32.8606C38.3409 32.4333 38.3471 32.0061 38.3471 31.5789C38.3533 31.5851 38.3626 31.5851 38.3688 31.5851Z" fill="#FCD304"/>
<path d="M28.8586 21.4317C28.357 21.4317 27.8522 21.4535 27.3505 21.4254C26.7776 21.3942 26.5082 21.1011 26.5144 20.5928C26.5206 20.0752 26.8426 19.701 27.3722 19.6791C28.453 19.6386 29.5368 19.6822 30.6114 19.7976C31.0852 19.8506 31.3144 20.1812 31.302 20.6552C31.2927 21.1229 30.9366 21.4566 30.4194 21.4816C30.15 21.494 29.8806 21.4628 29.6081 21.4566C29.3572 21.4504 29.1064 21.4566 28.8555 21.4566C28.8586 21.4473 28.8586 21.441 28.8586 21.4317Z" fill="#FCD304"/>
<path d="M92.8002 36.9903V26.5242L84.2961 38.2986C84.3812 38.6064 84.5344 38.8458 84.7557 39.0168C84.9771 39.1707 85.3091 39.3076 85.7517 39.4273L86.288 39.5812L86.0071 40.4021H79.7503L79.4438 39.5299L80.0312 39.376C80.6782 39.1879 81.1123 38.9399 81.3337 38.6321C81.555 38.3242 81.6657 37.777 81.6657 36.9903V25.3955C81.6657 24.6089 81.555 24.0616 81.3337 23.7538C81.1123 23.446 80.6782 23.198 80.0312 23.0099L79.4438 22.856L79.7503 21.9838H85.3431L85.6751 22.3942L85.3431 22.856C84.9175 23.4203 84.6195 24.0189 84.4493 24.6516C84.279 25.2844 84.1939 26.1138 84.1939 27.1399V35.5538L92.5704 23.9334C92.3831 23.5571 91.9149 23.2493 91.1658 23.0099L90.5784 22.856L90.8849 21.9838H96.4777L96.8097 22.3942L96.4777 22.856C96.0521 23.4203 95.7541 24.0189 95.5839 24.6516C95.4136 25.2844 95.3285 26.1138 95.3285 27.1399V37.1699C95.3285 37.9052 95.4306 38.4183 95.6349 38.709C95.8392 38.9997 96.2564 39.2392 96.8863 39.4273L97.4226 39.5812L97.1417 40.4021H90.8849L90.5784 39.5299L91.1658 39.376C91.8127 39.1879 92.2469 38.9399 92.4682 38.6321C92.6896 38.3242 92.8002 37.777 92.8002 36.9903Z" fill="#2EB34A"/>
<path d="M104.345 24.2412V35.246C104.345 36.2892 104.43 37.1271 104.6 37.7599C104.771 38.3755 105.069 38.9655 105.494 39.5299L105.826 39.9916L105.494 40.4021H99.9014L99.5949 39.5299L100.182 39.376C100.829 39.205 101.263 38.957 101.485 38.6321C101.706 38.3071 101.817 37.7599 101.817 36.9903V24.3181C101.817 23.9077 101.629 23.7025 101.255 23.7025H99.7737L99.4672 22.7534C100.199 22.4626 101.161 22.2061 102.353 21.9838C103.562 21.7444 104.72 21.6247 105.826 21.6247C108.346 21.6247 110.219 22.1976 111.445 23.3434C112.67 24.4721 113.283 25.9171 113.283 27.6786C113.283 29.44 112.764 30.8851 111.725 32.0138C110.687 33.1425 109.163 33.7068 107.154 33.7068C106.524 33.7068 105.988 33.6299 105.545 33.476C105.12 33.3221 104.907 33.0741 104.907 32.7321C104.907 32.3729 105.043 32.1934 105.315 32.1934C105.332 32.1934 105.469 32.2276 105.724 32.296C105.979 32.3473 106.26 32.3729 106.567 32.3729C107.844 32.3729 108.84 31.9625 109.555 31.1416C110.27 30.3207 110.627 29.2177 110.627 27.8325C110.627 26.4302 110.244 25.2844 109.478 24.3951C108.729 23.5058 107.682 23.0612 106.337 23.0612C105.009 23.0612 104.345 23.4545 104.345 24.2412Z" fill="#2EB34A"/>
<path d="M128.164 36.9903V26.5242L119.66 38.2986C119.745 38.6064 119.899 38.8458 120.12 39.0168C120.341 39.1707 120.673 39.3076 121.116 39.4273L121.652 39.5812L121.371 40.4021H115.114L114.808 39.5299L115.395 39.376C116.042 39.1879 116.476 38.9399 116.698 38.6321C116.919 38.3242 117.03 37.777 117.03 36.9903V25.3955C117.03 24.6089 116.919 24.0616 116.698 23.7538C116.476 23.446 116.042 23.198 115.395 23.0099L114.808 22.856L115.114 21.9838H120.707L121.039 22.3942L120.707 22.856C120.282 23.4203 119.984 24.0189 119.813 24.6516C119.643 25.2844 119.558 26.1138 119.558 27.1399V35.5538L127.935 23.9334C127.747 23.5571 127.279 23.2493 126.53 23.0099L125.943 22.856L126.249 21.9838H131.842L132.174 22.3942L131.842 22.856C131.416 23.4203 131.118 24.0189 130.948 24.6516C130.778 25.2844 130.693 26.1138 130.693 27.1399V37.1699C130.693 37.9052 130.795 38.4183 130.999 38.709C131.203 38.9997 131.62 39.2392 132.25 39.4273L132.787 39.5812L132.506 40.4021H126.249L125.943 39.5299L126.53 39.376C127.177 39.1879 127.611 38.9399 127.832 38.6321C128.054 38.3242 128.164 37.777 128.164 36.9903Z" fill="#2EB34A"/>
<path d="M148.315 36.9903V26.5242L139.811 38.2986C139.896 38.6064 140.05 38.8458 140.271 39.0168C140.492 39.1707 140.824 39.3076 141.267 39.4273L141.803 39.5812L141.522 40.4021H135.266L134.959 39.5299L135.546 39.376C136.193 39.1879 136.628 38.9399 136.849 38.6321C137.07 38.3242 137.181 37.777 137.181 36.9903V25.3955C137.181 24.6089 137.07 24.0616 136.849 23.7538C136.628 23.446 136.193 23.198 135.546 23.0099L134.959 22.856L135.266 21.9838H140.858L141.19 22.3942L140.858 22.856C140.433 23.4203 140.135 24.0189 139.965 24.6516C139.794 25.2844 139.709 26.1138 139.709 27.1399V35.5538L148.086 23.9334C147.898 23.5571 147.43 23.2493 146.681 23.0099L146.094 22.856L146.4 21.9838H151.993L152.325 22.3942L151.993 22.856C151.567 23.4203 151.269 24.0189 151.099 24.6516C150.929 25.2844 150.844 26.1138 150.844 27.1399V37.1699C150.844 37.9052 150.946 38.4183 151.15 38.709C151.354 38.9997 151.772 39.2392 152.401 39.4273L152.938 39.5812L152.657 40.4021H146.4L146.094 39.5299L146.681 39.376C147.328 39.1879 147.762 38.9399 147.983 38.6321C148.205 38.3242 148.315 37.777 148.315 36.9903ZM148.877 17.469C148.877 18.2386 148.477 18.8286 147.677 19.239C146.894 19.6494 145.813 19.8547 144.434 19.8547C143.072 19.8547 141.991 19.6494 141.19 19.239C140.407 18.8286 140.016 18.2386 140.016 17.469C140.016 16.9218 140.211 16.4857 140.603 16.1607C141.012 15.8187 141.437 15.6477 141.88 15.6477C142.34 15.6477 142.569 15.7589 142.569 15.9812C142.569 16.0154 142.501 16.1693 142.365 16.4429C142.229 16.6994 142.161 16.9987 142.161 17.3407C142.161 18.2813 142.927 18.7516 144.459 18.7516C145.991 18.7516 146.758 18.307 146.758 17.4177C146.758 17.0586 146.69 16.7422 146.553 16.4686C146.417 16.1778 146.349 16.0154 146.349 15.9812C146.349 15.7589 146.57 15.6477 147.013 15.6477C147.473 15.6477 147.898 15.8187 148.29 16.1607C148.681 16.4857 148.877 16.9218 148.877 17.469Z" fill="#2EB34A"/>
<path d="M44.7141 49.5439C45.3861 47.0118 46.7549 44.9131 48.6749 43.1762C50.3378 41.67 52.2702 40.6472 54.438 40.0796C54.6145 40.0328 54.8405 40.0266 54.7229 39.7117C54.0694 37.9841 54.4472 36.2877 54.9025 34.5944C55.24 33.3439 55.5714 32.0903 55.6395 30.7899C55.7665 28.4075 54.7043 26.5146 53.1652 24.8338C52.614 24.2319 52.0101 23.6738 51.4341 23.0937C51.3505 23.0095 51.1678 22.9378 51.2607 22.7881C51.335 22.6665 51.5022 22.7258 51.623 22.7507C53.4067 23.1218 54.9954 23.8546 56.1907 25.2953C56.2836 25.4076 56.392 25.5105 56.4973 25.6134C56.5283 25.6446 56.5778 25.6571 56.6614 25.7007C56.745 25.4606 56.8194 25.233 56.8968 25.0084C56.9773 24.893 57.0176 24.7652 57.0238 24.6217C57.064 24.5563 57.1043 24.4939 57.1414 24.4284C57.2622 24.3161 57.3148 24.1665 57.3644 24.0137C57.7546 23.3307 58.1386 22.6447 58.535 21.9649C58.6093 21.837 58.6681 21.5907 58.8663 21.6905C59.0243 21.7684 58.8756 21.9618 58.8385 22.0865C58.4018 23.5116 58.0333 24.9554 57.7298 26.4179C57.6617 26.7485 57.736 26.9387 57.9992 27.1196C58.473 27.447 58.9437 27.7651 59.5166 27.8836C59.7272 27.9272 59.8016 28.0114 59.6498 28.2141C58.3739 29.9355 58.2563 31.9125 58.4297 33.9457C58.6093 36.0475 59.4114 37.9435 60.3714 39.7834C60.6315 40.2792 60.6377 40.2761 60.0896 40.2792C59.7799 40.2792 59.464 40.3166 59.1605 40.273C57.2467 40.0048 55.7479 40.8623 54.3636 42.0317C52.1216 43.9277 50.7931 46.3819 50.0529 49.1916C50.0189 49.3194 49.9786 49.441 49.9445 49.5689C49.9476 49.5782 46.4576 49.678 44.7141 49.5439Z" fill="url(#paint0_linear_1820_3124)"/>
<path d="M55.1501 19.8756C55.1625 18.7405 55.6828 17.9858 56.3858 17.331C56.841 16.9069 57.321 16.514 57.7731 16.0867C57.9961 15.8778 58.1168 15.9308 58.2593 16.1709C58.7517 17.0067 58.8477 17.8985 58.6278 18.8247C58.3026 20.2093 57.5316 21.3693 56.7574 22.5262C56.5716 22.8069 56.3981 22.6478 56.2495 22.4795C55.562 21.703 55.24 20.7737 55.1501 19.8756Z" fill="#2EB34A"/>
<path d="M66.0663 22.074C65.5027 22.5698 65.1497 23.0781 64.7749 23.5677C64.0162 24.5562 62.9726 24.918 61.7928 25.0115C61.4181 25.0427 61.0464 25.0708 60.6748 25.1238C60.2041 25.1955 59.7458 25.3078 59.4083 25.6882C59.3401 25.7631 59.2627 25.8285 59.1543 25.7974C59.049 25.7662 59.0645 25.6695 59.0831 25.5947C59.3959 24.4315 59.6994 23.2434 60.8668 22.6197C61.5946 22.2331 62.4152 22.1114 63.2266 22.0771C64.1215 22.0428 65.0165 22.074 66.0663 22.074Z" fill="#2EB34A"/>
<path d="M53.3943 28.9344C53.4903 30.2286 52.8431 31.2077 51.6632 31.8719C51.1523 32.1588 50.632 32.427 50.1148 32.7014C50.0312 32.7451 49.9383 32.8293 49.8454 32.7638C49.7432 32.6952 49.8114 32.5892 49.8237 32.4956C49.8981 31.8969 49.9693 31.295 50.0405 30.6932C50.1365 29.8886 50.5701 29.3055 51.2173 28.8565C51.7964 28.4542 52.4467 28.1922 53.0754 27.8835C53.3014 27.7713 53.4067 27.8212 53.3974 28.0831C53.3881 28.3294 53.3943 28.5758 53.3943 28.9344Z" fill="#2EB34A"/>
<path d="M49.0279 27.9897C48.1825 28.0021 47.5228 27.6435 47.015 26.9731C46.5319 26.3369 46.2934 25.5823 45.9961 24.8557C45.8785 24.5688 46.0829 24.5438 46.2253 24.6249C47.6034 25.4107 49.2137 25.523 50.6289 26.1966C51.0129 26.3806 51.3659 26.6113 51.6818 26.9013C51.8026 27.0105 51.914 27.1103 51.6756 27.2132C50.824 27.5843 49.9848 27.9865 49.0279 27.9897Z" fill="#2EB34A"/>
<path d="M50.152 19.4421C50.1799 19.7571 50.0343 19.8007 49.7587 19.7415C48.9876 19.5793 48.2537 19.3298 47.5662 18.9338C46.151 18.1137 45.5688 16.8351 45.5378 15.2479C45.5347 15.1387 45.4821 15.0078 45.6214 14.9423C45.7546 14.883 45.8382 14.9797 45.9094 15.0701C46.5443 15.856 47.4175 16.3144 48.2568 16.8195C49.1486 17.3559 49.9259 17.9796 50.0994 19.1053C50.121 19.2145 50.1365 19.3298 50.152 19.4421Z" fill="#2EB34A"/>
<path d="M61.3592 29.7328C62.3749 29.6985 63.1367 30.1382 63.8924 30.6029C64.7161 31.1081 64.7192 31.1049 63.8986 31.5945C63.4093 31.8845 62.9478 32.2369 62.3626 32.3118C61.4026 32.4334 60.6996 31.9531 60.0895 31.2983C59.1698 30.3129 59.2069 30.1912 60.4797 29.8607C60.7956 29.7765 61.1177 29.7235 61.3592 29.7328Z" fill="#2EB34A"/>
<path d="M56.3424 15.3788C56.2898 16.62 55.6643 17.5711 54.8157 18.4068C54.5959 18.6251 54.503 18.4629 54.3791 18.2758C53.6452 17.1782 53.7938 16.0867 54.3481 14.9797C54.599 14.4776 54.9086 14.0223 55.271 13.5982C55.4723 13.3612 55.624 13.3737 55.8036 13.6294C56.1783 14.1564 56.361 14.7333 56.3424 15.3788Z" fill="#2EB34A"/>
<path d="M47.0521 19.9815C48.2753 19.9753 48.9752 20.4274 49.4304 21.5594C49.6007 21.9835 49.7153 22.4295 49.864 22.8598C49.96 23.1311 49.8918 23.2246 49.6007 23.1716C49.1548 23.0874 48.6996 23.0438 48.2567 22.9409C47.6498 22.8037 47.2193 22.4232 46.9499 21.8588C46.696 21.3318 46.5194 20.7611 46.1107 20.3183C45.9713 20.1655 46.0673 20.1062 46.2284 20.0626C46.4978 19.9846 46.7734 19.9815 47.0521 19.9815Z" fill="#2EB34A"/>
<path d="M55.0604 31.1983C55.0635 32.6078 54.0323 33.8396 52.7006 34.0797C52.5086 34.114 52.3259 34.139 52.3941 33.8334C52.7471 32.3053 53.1187 30.7867 54.4751 29.7826C54.5897 29.6984 54.7012 29.5393 54.8498 29.5955C55.0232 29.661 54.9272 29.8543 54.9427 29.9915C54.9861 30.4125 55.0232 30.8366 55.0604 31.1983Z" fill="#2EB34A"/>
<path d="M52.9019 18.2351C52.8895 18.4222 52.8957 18.6312 52.8183 18.8401C52.5705 19.5012 52.4405 19.4918 51.818 19.233C50.3254 18.6093 50.2696 17.2622 50.0931 15.9649C50.0591 15.7248 50.2356 15.6905 50.4152 15.809C50.762 16.0367 51.1615 16.1271 51.5486 16.2456C52.4745 16.52 52.8895 17.1312 52.9019 18.2351Z" fill="#2EB34A"/>
<path d="M63.0965 18.6531C62.5701 19.1334 62.1118 19.573 61.6348 19.9847C60.8576 20.6551 59.913 20.4493 59.015 20.4649C58.8385 20.468 58.8416 20.3402 58.9097 20.2279C59.464 19.3423 60.04 18.4629 61.1982 18.3475C61.8176 18.2851 62.4183 18.4816 63.0965 18.6531Z" fill="#2EB34A"/>
<path d="M53.0785 20.6396C53.0568 20.1407 53.2148 19.6979 53.543 19.3299C53.8806 18.9495 54.2181 18.9962 54.469 19.4391C54.983 20.3403 55.1348 21.2446 54.4968 22.1645C54.2522 22.52 54.0075 22.545 53.7041 22.2425C53.255 21.7997 53.0723 21.2571 53.0785 20.6396Z" fill="#2EB34A"/>
<path d="M66.376 29.2587C65.5182 30.3751 64.4591 30.5186 63.4217 29.6704C63.2204 29.5051 63.047 29.3055 62.8395 29.1496C62.5608 28.9438 62.5391 28.819 62.8829 28.6569C63.3969 28.4199 63.9327 28.317 64.487 28.2983C64.8369 28.2858 65.1621 28.4012 65.3912 28.6974C65.6421 29.0155 65.9332 29.2587 66.376 29.2587Z" fill="#2EB34A"/>
<path d="M50.4307 19.9816C50.6846 20.0097 51.0748 20.0346 51.4557 20.1032C52.1463 20.228 52.7997 21.2664 52.6913 22.0055C52.6635 22.1895 52.5675 22.1988 52.4281 22.2113C51.2668 22.3173 50.0591 21.4566 49.7184 20.2966C49.641 20.0315 49.7184 19.9723 49.9538 19.9816C50.0653 19.9879 50.1799 19.9816 50.4307 19.9816Z" fill="#2EB34A"/>
<path d="M64.5427 26.6331C63.849 27.369 63.115 27.8087 62.2294 27.9615C61.6998 28.0551 61.1672 28.0177 60.6376 27.8992C60.2846 27.8181 60.2846 27.7058 60.4921 27.4563C61.0619 26.7797 61.8144 26.5395 62.6567 26.499C63.242 26.4678 63.8242 26.5582 64.5427 26.6331Z" fill="#2EB34A"/>
<path d="M50.7342 25.5758C49.8423 25.4885 49.2973 24.8773 48.7584 24.2505C48.6563 24.132 48.7554 24.0884 48.839 24.0354C49.7061 23.4803 51.2235 23.8826 51.7376 24.7931C51.8583 25.0052 51.7933 25.1206 51.6385 25.2484C51.3783 25.4636 51.0625 25.5353 50.7342 25.5758Z" fill="#2EB34A"/>
<path d="M60.3713 34.2949C59.7984 34.3105 59.1202 33.3469 59.3648 32.8074C59.4175 32.692 59.5135 32.6982 59.6064 32.7045C60.5168 32.77 61.226 33.2221 61.8143 33.8926C61.9847 34.0859 61.8329 34.1421 61.6657 34.1608C61.2476 34.2076 60.8296 34.2481 60.3713 34.2949Z" fill="#2EB34A"/>
<path d="M34.2006 49.5783L39.0966 49.5877C39.0966 49.5877 41.6204 41.0277 53.2023 39.7398C53.2023 39.7429 39.4155 38.4394 34.2006 49.5783Z" fill="#2EB34A"/>
<path d="M24.2538 49.5469L29.1498 49.5563C29.1498 49.5563 34.5722 41.1709 46.4328 39.6616C46.4359 39.6616 29.0878 40.1138 24.2538 49.5469Z" fill="#2EB34A"/>
<path d="M15.5209 49.547L20.4169 49.5563C20.4169 49.5563 26.0468 41.1523 42.2367 39.5307C42.2398 39.5307 23.4331 39.2999 15.5209 49.547Z" fill="#2EB34A"/>
<path d="M44.7141 49.544C45.3861 47.0118 46.7549 44.9131 48.6749 43.1762C50.3378 41.67 52.2702 40.6472 54.438 40.0796C54.6145 40.0329 54.8405 40.0266 54.7229 39.7117C54.0694 37.9841 54.4472 36.2877 54.9025 34.5944C55.24 33.3439 55.5714 32.0903 55.6395 30.7899C55.7665 28.4075 54.7043 26.5146 53.1652 24.8338C52.614 24.2319 52.0101 23.6738 51.4341 23.0937C51.3505 23.0095 51.1678 22.9378 51.2607 22.7881C51.335 22.6665 51.5022 22.7258 51.623 22.7507C53.4067 23.1218 54.9954 23.8546 56.1907 25.2953C56.2836 25.4076 56.392 25.5105 56.4973 25.6134C56.5283 25.6446 56.5778 25.6571 56.6614 25.7007C56.745 25.4606 56.8194 25.233 56.8968 25.0084C56.9773 24.893 57.0176 24.7652 57.0238 24.6217C57.064 24.5563 57.1043 24.4939 57.1414 24.4284C57.2622 24.3161 57.3148 24.1665 57.3644 24.0137C57.7546 23.3307 58.1386 22.6447 58.535 21.9649C58.6093 21.837 58.6681 21.5907 58.8663 21.6905C59.0243 21.7684 58.8756 21.9618 58.8385 22.0865C58.4018 23.5116 58.0333 24.9554 57.7298 26.4179C57.6617 26.7485 57.736 26.9387 57.9992 27.1196C58.473 27.447 58.9437 27.7651 59.5166 27.8836C59.7272 27.9272 59.8016 28.0114 59.6498 28.2141C58.3739 29.9355 58.2563 31.9126 58.4297 33.9457C58.6093 36.0475 59.4114 37.9435 60.3714 39.7834C60.6315 40.2792 60.6377 40.2761 60.0896 40.2792C59.7799 40.2792 59.464 40.3166 59.1605 40.273C57.2467 40.0048 55.7479 40.8623 54.3636 42.0317C52.1216 43.9277 50.7931 46.3819 50.0529 49.1916C50.0189 49.3194 49.9786 49.441 49.9445 49.5689L44.7141 49.544Z" fill="#2EB34A"/>
</g>
<defs>
<linearGradient id="paint0_linear_1820_3124" x1="44.7133" y1="35.6443" x2="60.5471" y2="35.6443" gradientUnits="userSpaceOnUse">
<stop stop-color="#8DC63F"/>
<stop offset="1" stop-color="#00A651"/>
</linearGradient>
<clipPath id="clip0_1820_3124">
<rect width="165.997" height="59" fill="white" transform="translate(0.531494)"/>
</clipPath>
</defs>
</svg>
