<svg width="226" height="225" viewBox="0 0 226 225" fill="none" xmlns="http://www.w3.org/2000/svg">
<circle cx="113" cy="112.5" r="112.5" fill="#FFBE34"/>
<path fill-rule="evenodd" clip-rule="evenodd" d="M68.5 76.1046C68.5 74.39 69.89 73 71.6046 73H75.6046H150.116H154.395C156.109 73 157.499 74.39 157.499 76.1046C157.499 77.8193 156.109 79.2093 154.395 79.2093H153.22V126.193C153.22 130.644 152.043 134.555 149.258 137.34C146.473 140.125 142.563 141.302 138.111 141.302H116.104V148.697L130.946 156.118C132.48 156.885 133.102 158.75 132.335 160.283C131.568 161.817 129.703 162.438 128.169 161.672L112.999 154.087L97.8297 161.672C96.2961 162.438 94.4312 161.817 93.6644 160.283C92.8976 158.749 93.5192 156.885 95.0528 156.118L109.895 148.697V141.302H87.6506C83.1978 141.302 79.29 140.124 76.5013 137.342C73.7139 134.562 72.5235 130.657 72.5 126.209L72.5 126.193V79.2093H71.6046C69.89 79.2093 68.5 77.8193 68.5 76.1046ZM78.7093 79.2093H147.011V126.193C147.011 129.606 146.118 131.698 144.867 132.949C143.616 134.2 141.525 135.093 138.111 135.093H87.6506C84.2383 135.093 82.1438 134.201 80.8862 132.946C79.6281 131.691 78.7286 129.596 78.7093 126.184V79.2093ZM133.618 103.325C134.934 102.226 135.11 100.268 134.011 98.952C132.912 97.6358 130.954 97.4596 129.638 98.5586L117.53 108.667L113.178 101.414L113.179 101.414L113.17 101.4C112.397 100.127 111.144 99.1911 109.626 98.9241C108.101 98.6558 106.587 99.1133 105.419 100.092L105.415 100.096L92.3825 110.977C91.0663 112.076 90.8902 114.034 91.9891 115.35C93.088 116.666 95.0459 116.842 96.362 115.743L108.47 105.635L112.822 112.888L112.822 112.888L112.83 112.902C113.619 114.201 114.892 115.115 116.401 115.367C117.899 115.617 119.378 115.173 120.528 114.253L120.578 114.212L133.618 103.325Z" fill="white"/>
</svg>
