<svg width="49" height="48" viewBox="0 0 49 48" fill="none" xmlns="http://www.w3.org/2000/svg">
<path d="M48.5025 24C48.5025 37.2548 37.7576 48 24.503 48C11.2484 48 0.503418 37.2548 0.503418 24C0.503418 10.7452 11.2484 0 24.503 0C37.7576 0 48.5025 10.7452 48.5025 24Z" fill="#F5F5F5"/>
<path d="M33.6697 17.3419C32.8717 17.9048 31.9881 18.3353 31.053 18.6169C30.5512 18.0398 29.8842 17.6308 29.1423 17.4451C28.4004 17.2595 27.6194 17.3062 26.9049 17.5789C26.1904 17.8516 25.5768 18.3372 25.1473 18.97C24.7178 19.6027 24.4929 20.3522 24.5032 21.1169V21.9502C23.0387 21.9882 21.5876 21.6634 20.2791 21.0047C18.9706 20.3461 17.8452 19.3741 17.0033 18.1752C17.0033 18.1752 13.67 25.6752 21.1699 29.0085C19.4537 30.1735 17.4093 30.7576 15.3367 30.6752C22.8365 34.8419 32.003 30.6752 32.003 21.0919C32.0023 20.8598 31.9799 20.6282 31.9364 20.4002C32.7868 19.5615 33.387 18.5025 33.6697 17.3419Z" fill="#F2C94C"/>
</svg>
