<svg width="55" height="58" viewBox="0 0 55 58" fill="none" xmlns="http://www.w3.org/2000/svg">
<path fill-rule="evenodd" clip-rule="evenodd" d="M13.8682 15.5116C13.8682 9.17962 19.0013 4.04651 25.3333 4.04651C31.6653 4.04651 36.7984 9.17962 36.7984 15.5116C36.7984 21.8436 31.6653 26.9767 25.3333 26.9767C19.0013 26.9767 13.8682 21.8436 13.8682 15.5116ZM25.3333 0C16.7664 0 9.82166 6.94479 9.82166 15.5116C9.82166 24.0785 16.7664 31.0233 25.3333 31.0233C33.9001 31.0233 40.8449 24.0785 40.8449 15.5116C40.8449 6.94479 33.9001 0 25.3333 0ZM52.1759 37.6317C50.7098 36.1656 49.0635 35.362 47.2743 35.5458C45.5961 35.7182 44.2907 36.7209 43.3529 37.6587L42.0055 39.0061C41.9871 39.0238 41.969 39.0419 41.9513 39.0602L33.803 47.2086C33.4191 47.5925 33.1216 48.0574 32.9124 48.4711C32.7031 48.8848 32.5081 49.3927 32.4256 49.9152L31.9086 53.5887C31.739 54.7798 32.0524 56.0075 32.9398 56.8949C33.8271 57.7822 35.0571 58.0953 36.2482 57.9258L39.8859 57.4141L39.9194 57.4088C40.4337 57.3276 40.9447 57.1368 41.3652 56.9266C41.7647 56.7269 42.2513 56.4256 42.6467 56.0112L50.5239 48.134C50.7407 47.9887 50.9301 47.8012 51.0785 47.5794L52.1759 46.482C53.1137 45.5442 54.1193 44.2359 54.2863 42.5495C54.4638 40.7561 53.6505 39.1062 52.1759 37.6317ZM36.6679 50.0663L42.7834 43.9508C43.5876 45.1904 44.6418 46.2485 45.8783 47.057L39.7649 53.1704C39.7552 53.18 39.7457 53.1898 39.7362 53.1996C39.7318 53.203 39.7253 53.2077 39.7168 53.2137C39.6801 53.2392 39.625 53.2726 39.5557 53.3072C39.4869 53.3416 39.4192 53.3697 39.3615 53.3895C39.3216 53.4033 39.2969 53.4094 39.2883 53.4115L35.9538 53.8808L36.4229 50.5481C36.4249 50.54 36.4305 50.5191 36.4421 50.4856C36.4608 50.4322 36.4881 50.3669 36.5231 50.2978C36.5581 50.2286 36.5944 50.1681 36.6263 50.1217C36.6494 50.0881 36.6639 50.071 36.6673 50.0671L36.6679 50.0663ZM45.7514 40.9828C46.3954 42.3441 47.4858 43.4409 48.8424 44.0929L49.3146 43.6206C50.0224 42.9129 50.2307 42.4406 50.2594 42.1509C50.2775 41.9683 50.268 41.4464 49.3146 40.493C48.3799 39.5583 47.8681 39.5526 47.6879 39.5711C47.3969 39.601 46.9219 39.8123 46.2142 40.52L45.7514 40.9828ZM4.18344 55.9767C4.18344 47.0228 13.2554 39.1163 25.3333 39.1163C27.9444 39.1163 30.4454 39.4929 32.762 40.1904C33.832 40.5125 34.9605 39.9063 35.2827 38.8363C35.6048 37.7663 34.9986 36.6378 33.9286 36.3157C31.2276 35.5024 28.3333 35.0698 25.3333 35.0698C11.8372 35.0698 0.136932 44.0507 0.136932 55.9767C0.136932 57.0942 1.04277 58 2.16019 58C3.2776 58 4.18344 57.0942 4.18344 55.9767Z" fill="#020202"/>
</svg>
