<svg width="16" height="16" viewBox="0 0 16 16" fill="none" xmlns="http://www.w3.org/2000/svg">
<path d="M9.125 15.3L15.725 8.70002C15.825 8.60002 15.896 8.49169 15.938 8.37502C15.9793 8.25835 16 8.13335 16 8.00002C16 7.86669 15.9793 7.74169 15.938 7.62502C15.896 7.50835 15.825 7.40002 15.725 7.30002L9.125 0.700021C8.94167 0.516688 8.71267 0.420688 8.438 0.412022C8.16267 0.404022 7.925 0.500021 7.725 0.700021C7.525 0.883355 7.42067 1.11235 7.412 1.38702C7.404 1.66235 7.5 1.90002 7.7 2.10002L12.6 7.00002H1.425C1.14167 7.00002 0.904 7.09569 0.712 7.28702C0.520666 7.47902 0.424999 7.71669 0.424999 8.00002C0.424999 8.28335 0.520666 8.52069 0.712 8.71202C0.904 8.90402 1.14167 9.00002 1.425 9.00002H12.6L7.7 13.9C7.51667 14.0834 7.42067 14.3167 7.412 14.6C7.404 14.8834 7.5 15.1167 7.7 15.3C7.88333 15.5 8.11667 15.6 8.4 15.6C8.68333 15.6 8.925 15.5 9.125 15.3Z" fill="#333333"/>
</svg>
