<svg width="59" height="58" viewBox="0 0 59 58" fill="none" xmlns="http://www.w3.org/2000/svg">
<path fill-rule="evenodd" clip-rule="evenodd" d="M39.2616 0.594573C38.4725 -0.196647 37.1915 -0.198414 36.4002 0.590626C35.609 1.37967 35.6073 2.66072 36.3963 3.45194L43.3113 10.3861H15.1357L22.0507 3.45194C22.8397 2.66072 22.838 1.37967 22.0467 0.590626C21.2555 -0.198414 19.9745 -0.196647 19.1854 0.594573L9.42091 10.3861H8.23573C6.63879 10.3861 4.53154 10.4423 2.87108 11.5545C0.992945 12.8124 0.223633 14.9772 0.223633 17.8047C0.223633 20.889 0.920046 23.2392 2.98673 24.4303C3.47263 24.7104 3.97849 24.8888 4.47146 25.0042L8.10053 47.2419C8.55192 49.9784 9.37382 52.7612 11.4155 54.8288C13.5143 56.9543 16.5663 58 20.7526 58H37.0196C41.4682 58 44.5376 57.0309 46.5662 54.9053C48.5082 52.8704 49.1315 50.1085 49.6086 47.6168L53.9439 25.0116C54.4469 24.8965 54.9641 24.7164 55.4606 24.4303C57.5272 23.2392 58.2236 20.889 58.2236 17.8047C58.2236 14.9772 57.4543 12.8124 55.5762 11.5545C53.9157 10.4423 51.8085 10.3861 50.2116 10.3861H49.0261L39.2616 0.594573ZM49.783 25.2233H8.60726L12.0931 46.5833C12.505 49.0793 13.1536 50.8299 14.2949 51.9857C15.3794 53.0839 17.2236 53.9535 20.7526 53.9535H37.0196C40.9608 53.9535 42.7067 53.0883 43.6388 52.1116C44.6576 51.0441 45.1403 49.4357 45.6343 46.8558L49.783 25.2233ZM37.1042 34.3719C37.8621 35.193 37.8109 36.473 36.9898 37.2309L28.2224 45.3239C27.4244 46.0605 26.1873 46.0358 25.4194 45.2679L21.3729 41.2214C20.5827 40.4313 20.5827 39.1502 21.3729 38.3601C22.163 37.5699 23.4441 37.5699 24.2342 38.3601L26.9061 41.032L34.2452 34.2575C35.0662 33.4996 36.3463 33.5508 37.1042 34.3719ZM5.12293 14.9165C4.83618 15.1086 4.27014 15.6414 4.27014 17.8047C4.27014 20.5006 4.89982 20.8626 5.00506 20.9231L5.00728 20.9244C5.16483 21.0152 5.45748 21.1114 6.04841 21.1548C6.49895 21.1879 6.96322 21.1844 7.53985 21.1801C7.75453 21.1785 7.9848 21.1768 8.23573 21.1768H50.2116C50.4625 21.1768 50.6927 21.1785 50.9074 21.1801C51.4841 21.1844 51.9483 21.1879 52.3989 21.1548C52.9898 21.1114 53.2824 21.0152 53.44 20.9244L53.4422 20.9231C53.5475 20.8626 54.1771 20.5006 54.1771 17.8047C54.1771 15.6414 53.6111 15.1086 53.3243 14.9165C52.8199 14.5787 51.9328 14.4326 50.2116 14.4326H8.23573C6.51452 14.4326 5.62735 14.5787 5.12293 14.9165Z" fill="#020202"/>
</svg>
