<svg width="90" height="89" viewBox="0 0 90 89" fill="none" xmlns="http://www.w3.org/2000/svg">
<path fill-rule="evenodd" clip-rule="evenodd" d="M41.3999 7.31928L34.7835 12.9786C33.8103 13.7895 32.5755 14.4214 31.4086 14.8509C30.2433 15.2799 28.8724 15.6077 27.5649 15.6077H20.3885C17.7096 15.6077 15.4936 17.8237 15.4936 20.5025V27.513C15.4936 28.7858 15.1826 30.1373 14.766 31.2972C14.35 32.4557 13.7281 33.7032 12.9058 34.69L12.8874 34.712L7.29718 41.2958L7.29288 41.301C5.86548 43.005 5.86547 45.9534 7.29284 47.6574L7.29718 47.6626L12.8807 54.2387C13.7305 55.2281 14.3562 56.4982 14.7679 57.6508C15.1842 58.8165 15.4936 60.1762 15.4936 61.4454V68.5389C15.4936 71.2177 17.7096 73.4338 20.3885 73.4338H27.6478C28.9388 73.4338 30.3099 73.7636 31.4708 74.1886C32.6341 74.6145 33.8853 75.2455 34.8663 76.063L34.8958 76.0876L41.4498 81.6879L41.4677 81.7033C43.0999 83.1194 46.0655 83.1597 47.8288 81.6801L47.8357 81.6743L54.4031 76.0629C55.3763 75.2519 56.6111 74.6201 57.778 74.1905C58.9433 73.7615 60.3141 73.4338 61.6217 73.4338H68.6737C71.3525 73.4338 73.5686 71.2177 73.5686 68.5389V61.4869C73.5686 60.1793 73.8963 58.8085 74.3253 57.6432C74.7549 56.4763 75.3869 55.2416 76.1978 54.2684L76.2224 54.239L81.8227 47.685L81.8381 47.6671C83.2543 46.0348 83.2945 43.069 81.8148 41.3057L81.8091 41.299L76.1977 34.7316C75.3867 33.7585 74.7549 32.5236 74.3253 31.3568C73.8963 30.1915 73.5686 28.8206 73.5686 27.513V20.4611C73.5686 17.7822 71.3525 15.5662 68.6737 15.5662H61.6217C60.3175 15.5662 58.9394 15.2399 57.7675 14.8132C56.5961 14.3867 55.3436 13.7551 54.3618 12.9369L54.3323 12.9123L47.7603 7.29674C46.1283 5.88072 43.1633 5.84024 41.3999 7.31928ZM51.8284 2.58831C47.8205 -0.879967 41.424 -0.838744 37.3822 2.56787L30.7882 8.20791C30.513 8.43345 29.9694 8.75018 29.259 9.01169C28.5369 9.27753 27.9166 9.38533 27.5649 9.38533H20.3885C14.2731 9.38533 9.27126 14.3872 9.27126 20.5025V27.513C9.27126 27.8581 9.16744 28.477 8.90989 29.1941C8.65452 29.9052 8.34689 30.4377 8.13242 30.6984L2.54401 37.2803L2.53408 37.2921C-0.844694 41.3117 -0.844694 47.6468 2.53408 51.6664L8.1441 58.2738L8.1593 58.2916C8.34222 58.5037 8.64701 59.0127 8.90805 59.7436C9.16584 60.4654 9.27126 61.0968 9.27126 61.4454V68.5389C9.27126 74.6542 14.2731 79.6561 20.3885 79.6561H27.6478C27.9747 79.6561 28.5947 79.7618 29.3316 80.0316C30.0561 80.2969 30.6043 80.6148 30.8719 80.8341L37.3899 86.4031L37.3995 86.4115C41.4073 89.8799 47.804 89.8387 51.8458 86.4321L58.3979 80.8339C58.6729 80.6083 59.2168 80.2914 59.9276 80.0297C60.6497 79.7639 61.27 79.6561 61.6217 79.6561H68.6737C74.789 79.6561 79.7909 74.6542 79.7909 68.5389V61.4869C79.7909 61.1352 79.8987 60.5149 80.1645 59.7928C80.4262 59.0819 80.7432 58.538 80.9688 58.263L86.5379 51.7449L86.546 51.7356C90.0147 47.7278 89.9736 41.3308 86.5669 37.2889L80.9688 30.737C80.7433 30.462 80.4263 29.9181 80.1645 29.2072C79.8987 28.485 79.7909 27.8647 79.7909 27.513V20.4611C79.7909 14.3457 74.789 9.34385 68.6737 9.34385H61.6217C61.2666 9.34385 60.6329 9.23456 59.8965 8.96643C59.17 8.70188 58.6232 8.38458 58.3563 8.16595L51.8284 2.58831ZM44.569 25.3977C46.2872 25.3977 47.6801 26.7906 47.6801 28.5088V48.5447C47.6801 50.2629 46.2872 51.6559 44.569 51.6559C42.8507 51.6559 41.4578 50.2629 41.4578 48.5447V28.5088C41.4578 26.7906 42.8507 25.3977 44.569 25.3977ZM44.5447 57.007C42.2537 57.007 40.3965 58.8643 40.3965 61.1552C40.3965 63.4462 42.2537 65.3035 44.5447 65.3035H44.5819C46.8729 65.3035 48.7302 63.4462 48.7302 61.1552C48.7302 58.8643 46.8729 57.007 44.5819 57.007H44.5447Z" fill="white"/>
</svg>
