<svg width="277" height="93" viewBox="0 0 277 93" fill="none" xmlns="http://www.w3.org/2000/svg">
<g clip-path="url(#clip0_604_95)">
<path d="M55.1555 32.3244C55.1606 27.2187 59.6616 23.0174 65.0979 23.032C70.5445 23.0515 74.9835 27.3111 74.9732 32.5189C74.9628 37.5663 70.3792 41.8259 64.9739 41.8064C59.4704 41.7918 55.1451 37.6149 55.1555 32.3244ZM65.0617 25.8037C61.2894 25.8037 58.1372 28.7504 58.1372 32.2855C58.132 36.0735 61.1654 39.0202 65.0772 39.0348C69.0046 39.0493 72.1878 36.1561 72.2085 32.5432C72.2292 28.8914 68.9581 25.8037 65.0617 25.8037Z" fill="white"/>
<path d="M72.2395 43.6592C72.7563 43.6884 73.18 43.9509 73.4384 44.4032C74.2859 45.8619 75.1334 47.3256 75.9395 48.8038C76.3064 49.4748 76.0274 50.2723 75.3401 50.5932C74.6218 50.9287 73.8622 50.846 73.4591 50.1993C72.5031 48.6628 71.5936 47.0921 70.7926 45.4778C70.3585 44.6317 71.1905 43.6689 72.2395 43.6592Z" fill="white"/>
<path d="M53.4811 25.1618C53.4656 26.1586 52.3133 26.8734 51.3676 26.3969C49.7501 25.58 48.1895 24.6658 46.6496 23.7225C45.983 23.314 45.8796 22.4144 46.3189 21.8552C46.8046 21.2377 47.4764 21.0383 48.1895 21.4273C49.7501 22.2734 51.2901 23.1633 52.8197 24.058C53.2641 24.3108 53.4656 24.729 53.4811 25.1618Z" fill="white"/>
<path d="M47.1406 42.9104C46.6807 42.8909 46.2001 42.6818 45.9314 42.1615C45.6678 41.6509 45.735 41.1647 46.1381 40.7271C46.3964 40.445 46.7117 40.2408 47.0579 40.0706C48.3704 39.4239 49.6675 38.748 50.9956 38.1402C51.8999 37.7268 52.8507 37.9991 53.1815 38.6702C53.5328 39.3801 53.1866 40.163 52.2823 40.6249C50.9542 41.3057 49.6055 41.9573 48.2671 42.6186C47.9622 42.7791 47.6367 42.9152 47.1406 42.9104Z" fill="white"/>
<path d="M55.1503 14.4739C55.6412 14.4982 56.0908 14.7559 56.3853 15.2324C57.176 16.5113 57.9821 17.7902 58.7366 19.0885C59.2688 20.0075 59.0828 20.8195 58.3232 21.2377C57.6049 21.6365 56.7057 21.3204 56.1579 20.4403C55.3931 19.2149 54.6335 17.9847 53.91 16.7398C53.2589 15.6117 53.8584 14.4544 55.1503 14.4739Z" fill="white"/>
<path d="M58.5196 44.2377C58.5247 44.7531 58.4162 45.0643 58.225 45.3561C57.4189 46.6009 56.6334 47.8506 55.8014 49.0808C55.2278 49.9269 54.3597 50.2187 53.6879 49.8686C52.9747 49.499 52.7835 48.5946 53.3261 47.6901C54.1168 46.3724 54.9643 45.0789 55.8117 43.7903C56.2303 43.1533 56.8763 42.9005 57.6462 43.1242C58.287 43.3089 58.4937 43.8195 58.5196 44.2377Z" fill="white"/>
<path d="M66.4621 15.6993C66.4621 16.4578 66.4725 17.2164 66.4621 17.975C66.4466 18.7724 66.0849 19.3219 65.1754 19.4094C64.3692 19.4872 63.6923 18.9961 63.6096 18.1208C63.4546 16.487 63.4597 14.8435 63.6044 13.2096C63.682 12.3246 64.3331 11.8384 65.1495 11.9065C66.0539 11.9843 66.4363 12.524 66.457 13.3263C66.4776 14.1189 66.4621 14.9115 66.4621 15.6993Z" fill="white"/>
<path d="M77.8205 16.5405C77.7584 16.7107 77.7119 16.9927 77.5621 17.2164C76.6422 18.5682 75.7224 19.92 74.7457 21.2329C74.2083 21.9526 73.4332 22.0644 72.7201 21.6462C72.0121 21.228 71.8054 20.5813 72.2963 19.8471C73.211 18.4564 74.1825 17.1046 75.154 15.7479C75.5416 15.2082 76.1255 15.0672 76.7766 15.2568C77.3812 15.4318 77.7378 15.8306 77.8205 16.5405Z" fill="white"/>
<path d="M63.1394 49.2559C63.1394 48.4682 63.1032 47.6804 63.1497 46.8927C63.2117 45.8715 63.8629 45.2248 64.7207 45.2588C65.5475 45.2929 66.0849 45.925 66.0643 46.9364C66.0384 48.4195 66.116 49.9026 65.9041 51.3809C65.7697 52.3193 65.2478 52.8639 64.4158 52.8396C63.6097 52.8202 63.1187 52.2318 63.1032 51.2447C63.0929 50.5785 63.1032 49.9124 63.1032 49.2462C63.1136 49.2559 63.1291 49.2559 63.1394 49.2559Z" fill="white"/>
<path d="M47.2697 33.4234C46.4326 33.4234 45.5902 33.4574 44.7531 33.4136C43.7971 33.365 43.3475 32.9079 43.3578 32.1153C43.3682 31.3081 43.9056 30.7246 44.7893 30.6906C46.5928 30.6274 48.4014 30.6954 50.1946 30.8754C50.9852 30.958 51.3676 31.4735 51.3469 32.2126C51.3314 32.942 50.7372 33.4623 49.8742 33.5012C49.4246 33.5206 48.975 33.472 48.5203 33.4623C48.1017 33.4525 47.6831 33.4623 47.2645 33.4623C47.2697 33.4477 47.2697 33.4379 47.2697 33.4234Z" fill="white"/>
<path d="M152.743 57.6845V41.3645L139.278 59.7245C139.412 60.2045 139.655 60.5779 140.006 60.8445C140.356 61.0845 140.882 61.2979 141.583 61.4845L142.432 61.7245L141.987 63.0045H132.08L131.594 61.6445L132.524 61.4045C133.549 61.1112 134.236 60.7245 134.587 60.2445C134.937 59.7645 135.113 58.9112 135.113 57.6845V39.6045C135.113 38.3779 134.937 37.5245 134.587 37.0445C134.236 36.5645 133.549 36.1779 132.524 35.8845L131.594 35.6445L132.08 34.2845H140.936L141.461 34.9245L140.936 35.6445C140.262 36.5245 139.79 37.4579 139.52 38.4445C139.251 39.4312 139.116 40.7245 139.116 42.3245V55.4445L152.38 37.3245C152.083 36.7379 151.342 36.2579 150.155 35.8845L149.225 35.6445L149.711 34.2845H158.567L159.092 34.9245L158.567 35.6445C157.893 36.5245 157.421 37.4579 157.151 38.4445C156.882 39.4312 156.747 40.7245 156.747 42.3245V57.9645C156.747 59.1112 156.909 59.9112 157.232 60.3645C157.556 60.8179 158.216 61.1912 159.214 61.4845L160.063 61.7245L159.618 63.0045H149.711L149.225 61.6445L150.155 61.4045C151.18 61.1112 151.867 60.7245 152.218 60.2445C152.568 59.7645 152.743 58.9112 152.743 57.6845Z" fill="white"/>
<path d="M171.024 37.8045V54.9645C171.024 56.5912 171.159 57.8979 171.428 58.8845C171.698 59.8445 172.17 60.7645 172.844 61.6445L173.369 62.3645L172.844 63.0045H163.988L163.502 61.6445L164.433 61.4045C165.457 61.1379 166.144 60.7512 166.495 60.2445C166.845 59.7379 167.021 58.8845 167.021 57.6845V37.9245C167.021 37.2845 166.724 36.9645 166.131 36.9645H163.786L163.3 35.4845C164.46 35.0312 165.983 34.6312 167.87 34.2845C169.784 33.9112 171.617 33.7245 173.369 33.7245C177.359 33.7245 180.325 34.6179 182.266 36.4045C184.207 38.1645 185.177 40.4179 185.177 43.1645C185.177 45.9112 184.355 48.1645 182.711 49.9245C181.066 51.6845 178.653 52.5645 175.472 52.5645C174.475 52.5645 173.625 52.4445 172.925 52.2045C172.251 51.9645 171.914 51.5779 171.914 51.0445C171.914 50.4845 172.129 50.2045 172.561 50.2045C172.588 50.2045 172.803 50.2579 173.208 50.3645C173.612 50.4445 174.057 50.4845 174.542 50.4845C176.564 50.4845 178.141 49.8445 179.273 48.5645C180.406 47.2845 180.972 45.5645 180.972 43.4045C180.972 41.2179 180.365 39.4312 179.152 38.0445C177.966 36.6579 176.308 35.9645 174.178 35.9645C172.075 35.9645 171.024 36.5779 171.024 37.8045Z" fill="white"/>
<path d="M208.741 57.6845V41.3645L195.275 59.7245C195.41 60.2045 195.652 60.5779 196.003 60.8445C196.353 61.0845 196.879 61.2979 197.58 61.4845L198.429 61.7245L197.984 63.0045H188.077L187.592 61.6445L188.522 61.4045C189.546 61.1112 190.233 60.7245 190.584 60.2445C190.934 59.7645 191.11 58.9112 191.11 57.6845V39.6045C191.11 38.3779 190.934 37.5245 190.584 37.0445C190.233 36.5645 189.546 36.1779 188.522 35.8845L187.592 35.6445L188.077 34.2845H196.933L197.458 34.9245L196.933 35.6445C196.259 36.5245 195.787 37.4579 195.517 38.4445C195.248 39.4312 195.113 40.7245 195.113 42.3245V55.4445L208.377 37.3245C208.08 36.7379 207.339 36.2579 206.153 35.8845L205.222 35.6445L205.708 34.2845H214.564L215.089 34.9245L214.564 35.6445C213.89 36.5245 213.418 37.4579 213.148 38.4445C212.879 39.4312 212.744 40.7245 212.744 42.3245V57.9645C212.744 59.1112 212.906 59.9112 213.229 60.3645C213.553 60.8179 214.213 61.1912 215.211 61.4845L216.06 61.7245L215.615 63.0045H205.708L205.222 61.6445L206.153 61.4045C207.177 61.1112 207.864 60.7245 208.215 60.2445C208.565 59.7645 208.741 58.9112 208.741 57.6845Z" fill="white"/>
<path d="M240.649 57.6845V41.3645L227.183 59.7245C227.318 60.2045 227.56 60.5779 227.911 60.8445C228.261 61.0845 228.787 61.2979 229.488 61.4845L230.337 61.7245L229.892 63.0045H219.985L219.5 61.6445L220.43 61.4045C221.454 61.1112 222.142 60.7245 222.492 60.2445C222.842 59.7645 223.018 58.9112 223.018 57.6845V39.6045C223.018 38.3779 222.842 37.5245 222.492 37.0445C222.142 36.5645 221.454 36.1779 220.43 35.8845L219.5 35.6445L219.985 34.2845H228.841L229.366 34.9245L228.841 35.6445C228.167 36.5245 227.695 37.4579 227.425 38.4445C227.156 39.4312 227.021 40.7245 227.021 42.3245V55.4445L240.285 37.3245C239.988 36.7379 239.247 36.2579 238.061 35.8845L237.131 35.6445L237.616 34.2845H246.472L246.997 34.9245L246.472 35.6445C245.798 36.5245 245.326 37.4579 245.056 38.4445C244.787 39.4312 244.652 40.7245 244.652 42.3245V57.9645C244.652 59.1112 244.814 59.9112 245.137 60.3645C245.461 60.8179 246.121 61.1912 247.119 61.4845L247.968 61.7245L247.523 63.0045H237.616L237.131 61.6445L238.061 61.4045C239.085 61.1112 239.772 60.7245 240.123 60.2445C240.473 59.7645 240.649 58.9112 240.649 57.6845ZM241.538 27.2445C241.538 28.4445 240.905 29.3645 239.638 30.0045C238.398 30.6445 236.686 30.9645 234.502 30.9645C232.345 30.9645 230.634 30.6445 229.366 30.0045C228.126 29.3645 227.506 28.4445 227.506 27.2445C227.506 26.3912 227.816 25.7112 228.436 25.2045C229.083 24.6712 229.757 24.4045 230.458 24.4045C231.186 24.4045 231.55 24.5779 231.55 24.9245C231.55 24.9779 231.442 25.2179 231.227 25.6445C231.011 26.0445 230.903 26.5112 230.903 27.0445C230.903 28.5112 232.116 29.2445 234.543 29.2445C236.969 29.2445 238.182 28.5512 238.182 27.1645C238.182 26.6045 238.074 26.1112 237.858 25.6845C237.643 25.2312 237.535 24.9779 237.535 24.9245C237.535 24.5779 237.885 24.4045 238.586 24.4045C239.314 24.4045 239.988 24.6712 240.608 25.2045C241.228 25.7112 241.538 26.3912 241.538 27.2445Z" fill="white"/>
<path d="M73.7277 77.2595C74.8491 73.3111 77.1332 70.0386 80.3371 67.3302C83.1121 64.9815 86.3366 63.3866 89.954 62.5016C90.2485 62.4287 90.6257 62.4189 90.4294 61.9278C89.339 59.234 89.9695 56.5887 90.7291 53.9483C91.2924 51.9984 91.8453 50.0437 91.959 48.016C92.1709 44.301 90.3984 41.3494 87.8301 38.7285C86.9102 37.79 85.9026 36.9196 84.9414 36.0151C84.8019 35.8839 84.497 35.772 84.652 35.5386C84.776 35.349 85.0551 35.4414 85.2566 35.4803C88.2332 36.0589 90.8841 37.2016 92.8788 39.4481C93.0338 39.6232 93.2147 39.7836 93.3904 39.9441C93.4421 39.9927 93.5248 40.0122 93.6643 40.0803C93.8038 39.7058 93.9278 39.3509 94.057 39.0008C94.1914 38.8208 94.2586 38.6215 94.2689 38.3978C94.3361 38.2957 94.4032 38.1984 94.4653 38.0963C94.6668 37.9213 94.7546 37.6879 94.8373 37.4496C95.4884 36.3847 96.1292 35.3149 96.7907 34.2549C96.9147 34.0555 97.0129 33.6714 97.3436 33.827C97.6072 33.9485 97.3591 34.25 97.2971 34.4445C96.5685 36.6667 95.9535 38.9181 95.4471 41.1986C95.3334 41.7141 95.4574 42.0107 95.8967 42.2927C96.6873 42.8033 97.4728 43.2993 98.4288 43.4841C98.7802 43.5521 98.9042 43.6834 98.651 43.9995C96.522 46.6836 96.3256 49.7665 96.615 52.9369C96.9147 56.2143 98.2531 59.1707 99.8551 62.0397C100.289 62.8128 100.299 62.808 99.3848 62.8128C98.868 62.8128 98.341 62.8712 97.8345 62.8031C94.641 62.3849 92.1398 63.7221 89.8299 65.5456C86.0886 68.502 83.8717 72.3289 82.6366 76.7101C82.5798 76.9094 82.5126 77.0991 82.4558 77.2984C82.4609 77.313 76.6371 77.4686 73.7277 77.2595Z" fill="url(#paint0_linear_604_95)"/>
<path d="M91.1425 30.997C91.1632 29.2271 92.0313 28.0503 93.2044 27.0292C93.964 26.3679 94.765 25.7552 95.5195 25.089C95.8915 24.7632 96.0931 24.8459 96.3308 25.2203C97.1524 26.5235 97.3126 27.9142 96.9457 29.3583C96.4031 31.5173 95.1164 33.3262 93.8245 35.1302C93.5144 35.5679 93.2251 35.3199 92.977 35.0573C91.8298 33.8465 91.2924 32.3975 91.1425 30.997Z" fill="white"/>
<path d="M109.358 34.425C108.418 35.1982 107.829 35.9908 107.203 36.7542C105.937 38.2956 104.196 38.8597 102.227 39.0056C101.602 39.0542 100.982 39.098 100.361 39.1806C99.576 39.2925 98.8112 39.4675 98.2479 40.0607C98.1342 40.1774 98.0051 40.2796 97.8242 40.2309C97.6485 40.1823 97.6743 40.0316 97.7053 39.9149C98.2273 38.1011 98.7337 36.2485 100.682 35.276C101.896 34.673 103.266 34.4834 104.62 34.4299C106.113 34.3764 107.606 34.425 109.358 34.425Z" fill="white"/>
<path d="M88.2125 45.1228C88.3727 47.1408 87.2927 48.6677 85.3238 49.7034C84.4712 50.1507 83.603 50.5689 82.74 50.9968C82.6005 51.0649 82.4455 51.1962 82.2904 51.0941C82.1199 50.9871 82.2336 50.8218 82.2542 50.6759C82.3783 49.7423 82.4971 48.8038 82.616 47.8653C82.7762 46.6108 83.4996 45.7015 84.5797 45.0013C85.546 44.374 86.6312 43.9655 87.6802 43.4841C88.0575 43.3091 88.2332 43.3869 88.2177 43.7953C88.2022 44.1795 88.2125 44.5636 88.2125 45.1228Z" fill="white"/>
<path d="M80.9262 43.6495C79.5154 43.6689 78.4148 43.1097 77.5673 42.0643C76.7611 41.0723 76.3632 39.8956 75.8671 38.7626C75.6708 38.3152 76.0118 38.2763 76.2495 38.4028C78.5491 39.6281 81.2362 39.8032 83.5978 40.8535C84.2386 41.1404 84.8277 41.5002 85.3548 41.9524C85.5563 42.1226 85.7424 42.2782 85.3445 42.4387C83.9234 43.0173 82.523 43.6446 80.9262 43.6495Z" fill="white"/>
<path d="M82.802 30.321C82.8486 30.8121 82.6057 30.8802 82.1458 30.7878C80.859 30.5349 79.6343 30.1459 78.4871 29.5284C76.1255 28.2495 75.154 26.2558 75.1023 23.7808C75.0971 23.6106 75.0093 23.4064 75.2418 23.3043C75.464 23.2119 75.6036 23.3626 75.7224 23.5036C76.7818 24.729 78.239 25.4438 79.6395 26.2315C81.1277 27.0679 82.4248 28.0404 82.7142 29.7958C82.7504 29.966 82.7762 30.1459 82.802 30.321Z" fill="white"/>
<path d="M101.504 46.3674C103.199 46.314 104.47 46.9996 105.731 47.7241C107.105 48.5118 107.11 48.507 105.741 49.2704C104.925 49.7226 104.155 50.2721 103.178 50.3888C101.576 50.5784 100.403 49.8296 99.3848 48.8085C97.8501 47.2719 97.9121 47.0822 100.036 46.5668C100.563 46.4355 101.1 46.3529 101.504 46.3674Z" fill="white"/>
<path d="M93.1321 23.985C93.0442 25.9203 92.0004 27.4034 90.5844 28.7065C90.2175 29.0469 90.0625 28.7941 89.8558 28.5023C88.6311 26.7907 88.8791 25.0888 89.8041 23.3626C90.2227 22.5797 90.7395 21.8698 91.3441 21.2085C91.68 20.8389 91.9332 20.8583 92.2329 21.2571C92.8582 22.0789 93.1631 22.9784 93.1321 23.985Z" fill="white"/>
<path d="M77.6293 31.1622C79.6705 31.1525 80.8384 31.8576 81.598 33.6227C81.8822 34.284 82.0734 34.9793 82.3215 35.6504C82.4816 36.0734 82.368 36.2193 81.8822 36.1366C81.1381 36.0053 80.3784 35.9373 79.6395 35.7768C78.6266 35.5628 77.9083 34.9696 77.4588 34.0895C77.035 33.2677 76.7405 32.3779 76.0583 31.6874C75.8258 31.4491 75.986 31.3567 76.2547 31.2886C76.7043 31.1671 77.1642 31.1622 77.6293 31.1622Z" fill="white"/>
<path d="M90.9927 48.6529C90.9978 50.8508 89.277 52.7715 87.055 53.1459C86.7346 53.1994 86.4297 53.2383 86.5434 52.7618C87.1325 50.3791 87.7526 48.011 90.016 46.4453C90.2072 46.314 90.3932 46.066 90.6413 46.1535C90.9307 46.2557 90.7705 46.5571 90.7963 46.7711C90.8687 47.4275 90.9307 48.0888 90.9927 48.6529Z" fill="white"/>
<path d="M87.3908 28.4391C87.3702 28.7309 87.3805 29.0567 87.2513 29.3825C86.8379 30.4133 86.6209 30.3988 85.5822 29.9952C83.0914 29.0226 82.9984 26.922 82.7038 24.8992C82.647 24.5248 82.9415 24.4713 83.2412 24.6561C83.82 25.011 84.4866 25.152 85.1326 25.3368C86.6777 25.7647 87.3702 26.7178 87.3908 28.4391Z" fill="white"/>
<path d="M104.403 29.0907C103.524 29.8395 102.759 30.5251 101.963 31.167C100.666 32.2125 99.0903 31.8915 97.5917 31.9158C97.2971 31.9207 97.3023 31.7213 97.416 31.5463C98.341 30.1653 99.3021 28.7941 101.235 28.6141C102.268 28.5169 103.271 28.8232 104.403 29.0907Z" fill="white"/>
<path d="M87.6854 32.1883C87.6492 31.4102 87.9128 30.7198 88.4606 30.146C89.0238 29.5527 89.5871 29.6257 90.0057 30.3162C90.8635 31.7214 91.1167 33.1316 90.0522 34.566C89.6439 35.1204 89.2357 35.1593 88.7293 34.6876C87.98 33.9971 87.6751 33.151 87.6854 32.1883Z" fill="white"/>
<path d="M109.875 45.6285C108.444 47.3693 106.676 47.593 104.945 46.2704C104.609 46.0126 104.32 45.7014 103.974 45.4583C103.509 45.1374 103.472 44.9429 104.046 44.69C104.904 44.3204 105.798 44.16 106.723 44.1308C107.307 44.1114 107.849 44.2913 108.232 44.7532C108.65 45.2492 109.136 45.6285 109.875 45.6285Z" fill="white"/>
<path d="M83.2671 31.1623C83.6909 31.2061 84.342 31.245 84.9776 31.352C86.13 31.5465 87.2203 33.1657 87.0395 34.3181C86.9929 34.605 86.8327 34.6196 86.6002 34.6391C84.6624 34.8044 82.647 33.4623 82.0786 31.6534C81.9494 31.2401 82.0786 31.1477 82.4713 31.1623C82.6573 31.172 82.8485 31.1623 83.2671 31.1623Z" fill="white"/>
<path d="M106.816 41.5341C105.658 42.6817 104.434 43.3673 102.956 43.6056C102.072 43.7515 101.183 43.6931 100.299 43.5083C99.7104 43.3819 99.7104 43.2069 100.057 42.8179C101.007 41.7627 102.263 41.3883 103.669 41.325C104.645 41.2764 105.617 41.4174 106.816 41.5341Z" fill="white"/>
<path d="M83.7736 39.8857C82.2853 39.7496 81.3758 38.7965 80.4766 37.8191C80.3061 37.6343 80.4714 37.5663 80.611 37.4836C82.0579 36.6181 84.59 37.2453 85.4479 38.6652C85.6494 38.9959 85.5409 39.1758 85.2825 39.3752C84.8484 39.7107 84.3213 39.8225 83.7736 39.8857Z" fill="white"/>
<path d="M99.855 53.4814C98.899 53.5057 97.7674 52.0032 98.1756 51.1619C98.2634 50.982 98.4236 50.9917 98.5787 51.0015C100.098 51.1036 101.281 51.8087 102.263 52.8541C102.547 53.1556 102.294 53.2431 102.015 53.2723C101.317 53.3453 100.62 53.4085 99.855 53.4814Z" fill="white"/>
<path d="M56.1838 77.3129L64.3537 77.3275C64.3537 77.3275 68.5653 63.9797 87.8921 61.9715C87.8921 61.9763 64.886 59.9438 56.1838 77.3129Z" fill="white"/>
<path d="M39.5854 77.2645L47.7554 77.2791C47.7554 77.2791 56.8039 64.2036 76.5957 61.8501C76.6009 61.8501 47.6521 62.5552 39.5854 77.2645Z" fill="white"/>
<path d="M25.0129 77.2643L33.1828 77.2789C33.1828 77.2789 42.5775 64.1742 69.5937 61.6457C69.5988 61.6457 38.2161 61.2859 25.0129 77.2643Z" fill="white"/>
<path d="M73.7277 77.2596C74.8491 73.3111 77.1332 70.0386 80.3371 67.3302C83.1121 64.9815 86.3366 63.3866 89.954 62.5016C90.2485 62.4287 90.6257 62.419 90.4294 61.9278C89.339 59.234 89.9695 56.5887 90.7291 53.9483C91.2924 51.9984 91.8453 50.0437 91.959 48.016C92.1709 44.301 90.3984 41.3494 87.8301 38.7285C86.9102 37.79 85.9026 36.9196 84.9414 36.0151C84.8019 35.8839 84.497 35.772 84.652 35.5386C84.776 35.349 85.0551 35.4414 85.2566 35.4803C88.2332 36.0589 90.8841 37.2016 92.8788 39.4481C93.0338 39.6232 93.2147 39.7836 93.3904 39.9441C93.4421 39.9927 93.5248 40.0122 93.6643 40.0803C93.8038 39.7058 93.9278 39.3509 94.057 39.0008C94.1914 38.8208 94.2586 38.6215 94.2689 38.3978C94.3361 38.2957 94.4032 38.1984 94.4653 38.0963C94.6668 37.9213 94.7546 37.6879 94.8373 37.4496C95.4884 36.3847 96.1292 35.3149 96.7907 34.2549C96.9147 34.0555 97.0129 33.6714 97.3436 33.827C97.6072 33.9485 97.3591 34.25 97.2971 34.4445C96.5685 36.6667 95.9535 38.9181 95.4471 41.1987C95.3334 41.7141 95.4574 42.0107 95.8967 42.2927C96.6873 42.8033 97.4728 43.2993 98.4288 43.4841C98.7802 43.5521 98.9042 43.6834 98.651 43.9995C96.522 46.6836 96.3256 49.7665 96.615 52.9369C96.9147 56.2143 98.2531 59.1707 99.8551 62.0397C100.289 62.8128 100.299 62.808 99.3848 62.8128C98.868 62.8128 98.341 62.8712 97.8345 62.8031C94.641 62.3849 92.1398 63.7221 89.8299 65.5456C86.0886 68.502 83.8717 72.3289 82.6366 76.7101C82.5798 76.9095 82.5126 77.0991 82.4558 77.2985L73.7277 77.2596Z" fill="white"/>
</g>
<defs>
<linearGradient id="paint0_linear_604_95" x1="73.7264" y1="55.5854" x2="100.148" y2="55.5854" gradientUnits="userSpaceOnUse">
<stop stop-color="white"/>
<stop offset="1" stop-color="#00A651"/>
</linearGradient>
<clipPath id="clip0_604_95">
<rect width="277" height="92" fill="white" transform="translate(0 0.00439453)"/>
</clipPath>
</defs>
</svg>
