<svg width="37" height="26" viewBox="0 0 37 26" fill="none" xmlns="http://www.w3.org/2000/svg">
<g id="&#209;&#129;&#208;&#190;&#208;&#190;&#208;&#177;&#209;&#137;&#208;&#181;&#208;&#189;&#208;&#184;&#209;&#143;">
<path id="Vector (Stroke)" fill-rule="evenodd" clip-rule="evenodd" d="M6.44733 5.28997C6.44733 4.3432 7.1189 3.57568 7.94733 3.57568H28.9473C29.7758 3.57568 30.4473 4.3432 30.4473 5.28997V20.7185C30.4473 21.6653 29.7758 22.4328 28.9473 22.4328H7.94733C7.1189 22.4328 6.44733 21.6653 6.44733 20.7185V5.28997ZM28.9473 5.28997L7.94733 5.28997V20.7185H28.9473V5.28997ZM9.82169 7.32567C10.0477 6.92897 10.5123 6.81679 10.8594 7.0751L17.5827 12.0784C18.0803 12.4486 18.7221 12.4486 19.2197 12.0784L25.943 7.0751C26.2901 6.81679 26.7547 6.92897 26.9807 7.32567C27.2068 7.72237 27.1086 8.25337 26.7615 8.51168L20.0382 13.5149C19.0431 14.2555 17.7594 14.2555 16.7642 13.5149L10.0409 8.51168C9.69383 8.25337 9.59567 7.72237 9.82169 7.32567Z" fill="white"/>
</g>
</svg>
