<svg width="59" height="60" viewBox="0 0 59 60" fill="none" xmlns="http://www.w3.org/2000/svg">
<path d="M56.2236 47.1572C56.2236 48.1307 56.0073 49.1312 55.5476 50.1047C55.0879 51.0781 54.493 51.9975 53.7089 52.8628C52.3839 54.323 50.9237 55.3776 49.2742 56.0536C47.6518 56.7296 45.8941 57.0811 44.0013 57.0811C41.2432 57.0811 38.2957 56.4322 35.1861 55.1072C32.0764 53.7822 28.9667 51.9975 25.8841 49.7531C22.7745 47.4817 19.827 44.967 17.0148 42.1818C14.2296 39.3696 11.7149 36.4221 9.4705 33.3395C7.25318 30.2569 5.4685 27.1743 4.17055 24.1187C2.87261 21.0361 2.22363 18.0886 2.22363 15.2764C2.22363 13.4377 2.54812 11.68 3.19709 10.0576C3.84607 8.40811 4.87361 6.89384 6.30676 5.54181C8.03735 3.83826 9.93019 3 11.9312 3C12.6883 3 13.4455 3.16224 14.1215 3.48673C14.8245 3.81122 15.4465 4.29795 15.9332 5.001L22.2066 13.8433C22.6933 14.5193 23.0449 15.1412 23.2882 15.7361C23.5316 16.304 23.6668 16.8718 23.6668 17.3856C23.6668 18.0346 23.4775 18.6835 23.0989 19.3055C22.7474 19.9274 22.2336 20.5764 21.5847 21.2253L19.5296 23.3615C19.2321 23.659 19.0969 24.0105 19.0969 24.4432C19.0969 24.6595 19.124 24.8488 19.1781 25.0651C19.2592 25.2814 19.3403 25.4437 19.3944 25.6059C19.8811 26.4982 20.7194 27.661 21.9092 29.0671C23.126 30.4732 24.4239 31.9064 25.83 33.3395C27.2902 34.7727 28.6963 36.0976 30.1295 37.3145C31.5356 38.5043 32.6983 39.3155 33.6177 39.8022C33.7529 39.8563 33.9152 39.9374 34.1045 40.0185C34.3208 40.0997 34.5371 40.1267 34.7805 40.1267C35.2402 40.1267 35.5917 39.9645 35.8891 39.667L37.9442 37.639C38.6202 36.9629 39.2692 36.4492 39.8911 36.1247C40.5131 35.7461 41.135 35.5568 41.811 35.5568C42.3248 35.5568 42.8656 35.665 43.4605 35.9084C44.0554 36.1517 44.6773 36.5033 45.3533 36.9629L54.3038 43.3175C55.0068 43.8042 55.4935 44.3721 55.791 45.0481C56.0614 45.7241 56.2236 46.4001 56.2236 47.1572Z" stroke="#020202" stroke-width="4.05608" stroke-miterlimit="10"/>
<path fill-rule="evenodd" clip-rule="evenodd" d="M55.0351 6.89295C55.8271 7.68495 55.8271 8.96903 55.0351 9.76103L44.2188 20.5773C43.4268 21.3693 42.1427 21.3693 41.3507 20.5773L35.9426 15.1691C35.1506 14.3771 35.1506 13.0931 35.9426 12.3011C36.7346 11.5091 38.0187 11.5091 38.8107 12.3011L42.7848 16.2751L52.167 6.89295C52.959 6.10095 54.2431 6.10095 55.0351 6.89295Z" fill="#020202"/>
</svg>
