<svg width="43" height="58" viewBox="0 0 43 58" fill="none" xmlns="http://www.w3.org/2000/svg">
<path fill-rule="evenodd" clip-rule="evenodd" d="M20.9719 4.08259C15.4294 4.08259 10.9334 8.58469 10.9559 14.1174L10.956 14.1258C10.956 19.523 15.1721 23.9022 20.4953 24.1386C20.818 24.1161 21.159 24.115 21.4807 24.1383C26.7782 23.899 31.0151 19.5179 31.0151 14.1258C31.0151 8.58491 26.5128 4.08259 20.9719 4.08259ZM6.87337 14.1299C6.84379 6.32812 13.1793 0 20.9719 0C28.7675 0 35.0977 6.33016 35.0977 14.1258C35.0977 21.759 29.0534 27.9683 21.5035 28.2231C21.4127 28.2262 21.3218 28.2232 21.2315 28.2142C21.1002 28.2011 20.9041 28.1993 20.7212 28.2159C20.637 28.2236 20.5524 28.226 20.4679 28.2232C12.8887 27.9684 6.87556 21.758 6.87337 14.1299ZM41.4946 42.8663C42.2917 43.6635 42.2917 44.9559 41.4946 45.7531L33.2205 54.0272C32.4233 54.8243 31.1309 54.8243 30.3337 54.0272L26.1967 49.8901C25.3995 49.093 25.3995 47.8005 26.1967 47.0033C26.9938 46.2061 28.2863 46.2061 29.0835 47.0033L31.7771 49.6969L38.6077 42.8663C39.4049 42.0691 40.6974 42.0691 41.4946 42.8663ZM8.47118 37.9227C11.8074 35.6905 16.3288 34.5115 20.9583 34.5115C25.5877 34.5115 30.1091 35.6905 33.4454 37.9227C34.3824 38.5497 35.6502 38.2983 36.2771 37.3613C36.904 36.4243 36.6527 35.1565 35.7157 34.5296C31.5672 31.7539 26.2087 30.4289 20.9583 30.4289C15.7088 30.4289 10.3513 31.7534 6.20311 34.5281C2.48504 37.0025 0.354797 40.4713 0.354797 44.2042C0.354797 47.9366 2.48439 51.4114 6.20049 53.899L6.20372 53.9012C10.3635 56.6744 15.7064 58 20.9719 58C22.0993 58 23.0132 57.0861 23.0132 55.9587C23.0132 54.8313 22.0993 53.9174 20.9719 53.9174C16.3311 53.9174 11.822 52.7394 8.47 50.5054C5.60066 48.584 4.43739 46.262 4.43739 44.2042C4.43739 42.1474 5.59958 39.8332 8.46672 37.9257L8.47118 37.9227Z" fill="#020202"/>
</svg>
